<?xml version="1.0" encoding="UTF-8" standalone="no"?><!DOCTYPE svg PUBLIC "-//W3C//DTD SVG 1.1//EN" "http://www.w3.org/Graphics/SVG/1.1/DTD/svg11.dtd"><svg width="100%" height="100%" viewBox="0 0 768 768" version="1.1" xmlns="http://www.w3.org/2000/svg" xmlns:xlink="http://www.w3.org/1999/xlink" xml:space="preserve" xmlns:serif="http://www.serif.com/" style="fill-rule:evenodd;clip-rule:evenodd;stroke-linejoin:round;stroke-miterlimit:1.5;"><rect id="Mesa-de-trabajo1" serif:id="Mesa de trabajo1" x="0" y="0" width="768" height="768" style="fill:none;"/><circle cx="384" cy="384" r="359.752" style="fill:url(#_Linear1);"/><g id="Capa1"><path d="M572.162,180.873c-7.267,-4.195 -14.713,-8.072 -22.317,-11.618c-7.552,-3.522 -15.254,-6.712 -23.085,-9.562c-7.776,-2.83 -15.671,-5.319 -23.664,-7.461c-7.936,-2.127 -15.962,-3.906 -24.053,-5.332c-8.034,-1.417 -16.126,-2.482 -24.253,-3.193c-8.069,-0.706 -16.165,-1.059 -24.265,-1.059c-8.042,0 -16.079,0.351 -24.09,1.052c-7.953,0.696 -15.872,1.738 -23.734,3.125c-7.805,1.376 -15.545,3.092 -23.2,5.143c-7.599,2.036 -15.105,4.403 -22.497,7.093c-7.338,2.671 -14.555,5.66 -21.632,8.96c-7.024,3.275 -13.902,6.856 -20.614,10.731c-6.661,3.846 -13.152,7.981 -19.453,12.393c-6.253,4.378 -12.312,9.028 -18.16,13.935c-5.803,4.869 -11.391,9.99 -16.747,15.346c-5.315,5.315 -10.396,10.86 -15.228,16.619c-4.794,5.714 -9.337,11.634 -13.615,17.744c-4.245,6.062 -8.223,12.307 -11.923,18.716c-3.671,6.359 -7.063,12.874 -10.166,19.529c-3.078,6.602 -5.867,13.334 -8.358,20.179c-2.471,6.79 -4.645,13.685 -6.515,20.664c-1.855,6.923 -3.407,13.924 -4.652,20.983c-1.234,7.001 -2.163,14.053 -2.782,21.135c-0.615,7.024 -0.922,14.072 -0.922,21.123c-0,6.993 0.305,13.982 0.915,20.948c0.604,6.908 1.51,13.786 2.714,20.615c1.194,6.772 2.683,13.488 4.463,20.13c1.765,6.586 3.816,13.091 6.148,19.498c2.312,6.352 4.9,12.6 7.757,18.726c2.832,6.073 5.928,12.02 9.278,17.824c3.322,5.753 6.892,11.358 10.703,16.8c3.777,5.394 7.787,10.62 12.02,15.665c4.195,5 8.606,9.814 13.221,14.429c4.574,4.574 9.345,8.946 14.3,13.103c4.91,4.12 9.998,8.024 15.249,11.701c5.203,3.643 10.562,7.058 16.063,10.233c5.45,3.147 11.035,6.054 16.739,8.714c5.651,2.635 11.414,5.022 17.273,7.155c5.804,2.113 11.698,3.971 17.664,5.57c5.91,1.584 11.886,2.909 17.912,3.971c5.968,1.052 11.98,1.844 18.017,2.372c5.979,0.523 11.978,0.785 17.98,0.785c5.944,0 11.885,-0.259 17.806,-0.777c5.863,-0.513 11.701,-1.282 17.497,-2.304c5.739,-1.012 11.43,-2.274 17.059,-3.782c5.572,-1.493 11.077,-3.229 16.498,-5.202c5.366,-1.953 10.645,-4.14 15.82,-6.553c5.123,-2.389 10.139,-5 15.034,-7.826c4.845,-2.797 9.565,-5.804 14.147,-9.013c4.535,-3.175 8.929,-6.547 13.169,-10.105c4.196,-3.521 8.236,-7.223 12.11,-11.096c3.832,-3.832 7.495,-7.829 10.978,-11.981c3.446,-4.107 6.711,-8.362 9.786,-12.753c3.042,-4.344 5.892,-8.818 8.543,-13.41c2.622,-4.542 5.045,-9.196 7.261,-13.949c2.192,-4.7 4.177,-9.494 5.951,-14.367c1.754,-4.819 3.297,-9.712 4.624,-14.665c1.312,-4.897 2.41,-9.849 3.29,-14.841c0.87,-4.935 1.525,-9.906 1.961,-14.898c0.432,-4.934 0.648,-9.885 0.648,-14.838c0,-4.895 -0.214,-9.787 -0.64,-14.664c-0.422,-4.818 -1.053,-9.616 -1.893,-14.379c-0.83,-4.706 -1.864,-9.373 -3.101,-13.988c-1.222,-4.559 -2.642,-9.063 -4.256,-13.498c-1.594,-4.381 -3.379,-8.69 -5.349,-12.915c-1.946,-4.172 -4.072,-8.257 -6.374,-12.244c-2.273,-3.936 -4.716,-7.771 -7.323,-11.495c-2.574,-3.675 -5.306,-7.237 -8.191,-10.674c-2.847,-3.393 -5.84,-6.659 -8.972,-9.791c-3.09,-3.09 -6.314,-6.044 -9.662,-8.854c-3.303,-2.772 -6.726,-5.398 -10.258,-7.871c-3.485,-2.44 -7.074,-4.727 -10.758,-6.854c-3.633,-2.098 -7.357,-4.036 -11.159,-5.809c-3.75,-1.749 -7.574,-3.333 -11.462,-4.748c-3.833,-1.395 -7.725,-2.622 -11.665,-3.678c-3.884,-1.041 -7.811,-1.911 -11.771,-2.61c-3.902,-0.688 -7.833,-1.206 -11.78,-1.551c-3.889,-0.34 -7.792,-0.511 -11.696,-0.511c-3.846,0 -7.69,0.168 -11.521,0.503c-3.773,0.33 -7.53,0.825 -11.26,1.482c-3.673,0.648 -7.315,1.455 -10.918,2.42c-3.546,0.95 -7.049,2.055 -10.499,3.31c-3.395,1.236 -6.734,2.619 -10.009,4.146c-3.222,1.502 -6.376,3.144 -9.454,4.922c-3.028,1.748 -5.978,3.628 -8.842,5.633c-2.816,1.972 -5.545,4.066 -8.179,6.276c-2.589,2.172 -5.082,4.457 -7.472,6.847c-2.349,2.349 -4.594,4.799 -6.729,7.343c-2.098,2.5 -4.085,5.09 -5.957,7.763c-1.838,2.625 -3.561,5.33 -5.164,8.105c-1.573,2.725 -3.027,5.518 -4.357,8.369c-1.305,2.799 -2.488,5.654 -3.544,8.556c-1.036,2.847 -1.948,5.739 -2.732,8.666c-0.769,2.871 -1.413,5.773 -1.929,8.7c-0.506,2.869 -0.886,5.759 -1.14,8.662c-0.249,2.844 -0.373,5.698 -0.373,8.554c0,2.797 0.122,5.593 0.366,8.379c0.239,2.728 0.596,5.445 1.072,8.142c0.465,2.64 1.046,5.258 1.74,7.847c0.679,2.533 1.468,5.035 2.364,7.499c0.877,2.409 1.859,4.779 2.942,7.103c1.059,2.271 2.217,4.495 3.469,6.665c1.224,2.12 2.539,4.185 3.943,6.189c1.37,1.957 2.825,3.853 4.361,5.684c1.498,1.786 3.074,3.505 4.722,5.153c1.607,1.607 3.283,3.143 5.024,4.604c1.696,1.423 3.454,2.772 5.268,4.042c1.766,1.237 3.585,2.396 5.453,3.474c1.817,1.049 3.678,2.018 5.58,2.905c1.848,0.862 3.734,1.643 5.65,2.34c1.862,0.678 3.752,1.274 5.666,1.786c1.857,0.498 3.736,0.914 5.629,1.248c1.836,0.324 3.686,0.567 5.544,0.73c1.8,0.157 3.605,0.236 5.412,0.236c1.748,0 3.495,-0.076 5.237,-0.229c1.683,-0.147 3.36,-0.368 5.024,-0.661c1.607,-0.283 3.201,-0.637 4.777,-1.059c1.52,-0.407 3.021,-0.881 4.499,-1.419c1.424,-0.518 2.824,-1.098 4.197,-1.739c1.32,-0.616 2.613,-1.289 3.875,-2.017c1.211,-0.699 2.391,-1.451 3.537,-2.253c1.098,-0.769 2.162,-1.585 3.188,-2.447c0.982,-0.824 1.928,-1.691 2.834,-2.597c0.865,-0.865 1.692,-1.768 2.479,-2.705c0.749,-0.893 1.459,-1.818 2.127,-2.772c0.635,-0.907 1.23,-1.841 1.784,-2.8c0.524,-0.908 1.009,-1.839 1.452,-2.79c0.419,-0.898 0.798,-1.813 1.137,-2.744c0.319,-0.876 0.599,-1.766 0.841,-2.666c0.226,-0.844 0.416,-1.698 0.567,-2.559c0.142,-0.803 0.248,-1.613 0.319,-2.425c0.066,-0.755 0.099,-1.512 0.099,-2.269c0,-0.699 -0.031,-1.398 -0.091,-2.095c-0.056,-0.639 -0.14,-1.274 -0.251,-1.906c-0.101,-0.574 -0.227,-1.143 -0.378,-1.706c-0.136,-0.507 -0.294,-1.007 -0.473,-1.5c-0.159,-0.438 -0.338,-0.869 -0.535,-1.291c-0.172,-0.37 -0.361,-0.732 -0.565,-1.085c-0.175,-0.303 -0.363,-0.598 -0.563,-0.884c-0.167,-0.239 -0.345,-0.47 -0.532,-0.693c-0.15,-0.179 -0.307,-0.35 -0.472,-0.515c-0.124,-0.124 -0.253,-0.242 -0.386,-0.354c-0.089,-0.075 -0.182,-0.146 -0.277,-0.213c-0.048,-0.033 -0.097,-0.065 -0.147,-0.094" style="fill:none;stroke:#fff;stroke-width:60px;stroke-dasharray:120,60,0,0,0,0;stroke-dashoffset:120;"/></g><defs><linearGradient id="_Linear1" x1="0" y1="0" x2="1" y2="0" gradientUnits="userSpaceOnUse" gradientTransform="matrix(719.504493,0,0,719.504493,24.247754,384)"><stop offset="0" style="stop-color:#000dc3;stop-opacity:1"/><stop offset="1" style="stop-color:#7750f6;stop-opacity:1"/></linearGradient></defs></svg>